<svg width="95" height="126" viewBox="0 0 95 126" fill="none" xmlns="http://www.w3.org/2000/svg">
<path d="M47.25 63C53.4801 63 59.5703 61.1526 64.7505 57.6913C69.9306 54.23 73.968 49.3104 76.3522 43.5545C78.7364 37.7987 79.3602 31.4651 78.1447 25.3547C76.9293 19.2443 73.9292 13.6315 69.5239 9.22615C65.1185 4.8208 59.5057 1.82071 53.3953 0.605278C47.2849 -0.610156 40.9513 0.0136485 35.1955 2.39781C29.4396 4.78197 24.52 8.8194 21.0587 13.9995C17.5974 19.1797 15.75 25.2699 15.75 31.5C15.7583 39.8518 19.0798 47.8591 24.9853 53.7647C30.8909 59.6702 38.8982 62.9917 47.25 63ZM47.25 10.5C51.4034 10.5 55.4635 11.7316 58.917 14.0391C62.3704 16.3467 65.062 19.6264 66.6515 23.4637C68.2409 27.3009 68.6568 31.5233 67.8465 35.5969C67.0362 39.6705 65.0361 43.4123 62.0992 46.3492C59.1623 49.2861 55.4205 51.2862 51.3469 52.0965C47.2733 52.9068 43.0509 52.4909 39.2136 50.9015C35.3764 49.312 32.0966 46.6204 29.7891 43.167C27.4816 39.7135 26.25 35.6534 26.25 31.5C26.25 25.9305 28.4625 20.589 32.4008 16.6508C36.339 12.7125 41.6805 10.5 47.25 10.5Z" fill="white"/>
<path d="M47.25 73.4998C34.7228 73.5137 22.7126 78.4963 13.8545 87.3543C4.99647 96.2124 0.013896 108.223 0 120.75C0 122.142 0.553123 123.478 1.53769 124.462C2.52225 125.447 3.85761 126 5.25 126C6.64239 126 7.97774 125.447 8.96231 124.462C9.94687 123.478 10.5 122.142 10.5 120.75C10.5 111.003 14.3719 101.656 21.2638 94.7636C28.1558 87.8717 37.5033 83.9998 47.25 83.9998C56.9967 83.9998 66.3442 87.8717 73.2362 94.7636C80.1281 101.656 84 111.003 84 120.75C84 122.142 84.5531 123.478 85.5377 124.462C86.5222 125.447 87.8576 126 89.25 126C90.6424 126 91.9777 125.447 92.9623 124.462C93.9469 123.478 94.5 122.142 94.5 120.75C94.4861 108.223 89.5035 96.2124 80.6454 87.3543C71.7873 78.4963 59.7772 73.5137 47.25 73.4998Z" fill="white"/>
</svg>
